<svg xmlns="http://www.w3.org/2000/svg" version="1.1" xmlns:xlink="http://www.w3.org/1999/xlink" xmlns:svgjs="http://svgjs.dev/svgjs" width="1500" height="1500" viewBox="0 0 1500 1500"><rect width="1500" height="1500" fill="#ffffff"></rect><g transform="matrix(0.6666666666666666,0,0,0.6666666666666666,249.3939393939396,692.2851085125099)"><svg viewBox="0 0 396 45" data-background-color="#ffffff" preserveAspectRatio="xMidYMid meet" height="170" width="1500" xmlns="http://www.w3.org/2000/svg" xmlns:xlink="http://www.w3.org/1999/xlink"><g id="tight-bounds" transform="matrix(1,0,0,1,0.23999999999992383,0.41620691415053557)"><svg viewBox="0 0 395.5199999999999 44.16758617169891" height="44.16758617169891" width="395.5199999999999"><g><svg viewBox="0 0 626.192856518569 69.92674694171265" height="44.16758617169891" width="395.5199999999999"><g transform="matrix(1,0,0,1,230.67285651856906,9.664260973854645)"><svg viewBox="0 0 395.52 50.59822499400336" height="50.59822499400336" width="395.52"><g id="textblocktransform"><svg viewBox="0 0 395.52 50.59822499400336" height="50.59822499400336" width="395.52" id="textblock"><g><svg viewBox="0 0 395.52 50.59822499400336" height="50.59822499400336" width="395.52"><g transform="matrix(1,0,0,1,0,0)"><svg width="395.52" viewBox="-1.326667866637 -31.86 324.396667866637 41.5" height="50.59822499400336" data-palette-color="#000000"><path d="M-1.15-6.15L-1.15-6.15Q-0.71-8.3 0.67-9.75 2.05-11.21 3.98-12.05 5.91-12.89 8.25-13.27 10.6-13.65 12.94-13.65L12.94-13.65Q13.84-13.65 14.55-13.62 15.26-13.6 15.91-13.55 16.55-13.5 17.18-13.43 17.8-13.35 18.6-13.26L18.6-13.26 18.95-14.89Q19.31-16.55 18.81-17.63 18.31-18.7 17.38-19.32 16.46-19.95 15.36-20.2 14.26-20.46 13.45-20.46L13.45-20.46Q10.89-20.46 8.62-19.78 6.35-19.09 4.25-17.94L4.25-17.94 3.25-20.46Q5.59-21.7 8.33-22.5 11.06-23.29 14.11-23.29L14.11-23.29Q15.94-23.29 17.65-22.81 19.36-22.34 20.56-21.35 21.75-20.36 22.25-18.75 22.75-17.14 22.29-14.89L22.29-14.89 19.14 0 15.8 0 16.6-3.81Q15.45-2.71 14.17-1.88 12.89-1.05 11.57-0.52 10.25 0 8.95 0.28 7.64 0.56 6.54 0.56L6.54 0.56Q2.05 0.56 0.1-1.17-1.86-2.91-1.15-6.15ZM7.15-2.29L7.15-2.29Q9.25-2.29 11.07-2.92 12.89-3.54 14.25-4.47 15.6-5.4 16.48-6.45 17.36-7.5 17.55-8.35L17.55-8.35 17.99-10.5Q16.41-10.74 14.9-10.77 13.4-10.79 12.3-10.79L12.3-10.79Q10.5-10.79 8.78-10.55 7.06-10.3 5.7-9.75 4.35-9.2 3.39-8.33 2.44-7.45 2.2-6.15L2.2-6.15Q1.86-4.71 3-3.5 4.15-2.29 7.15-2.29ZM27.9-8.69L30.88-22.75 34.25-22.75 31.25-8.69Q30.64-5.64 31.59-3.97 32.54-2.29 35.5-2.29L35.5-2.29Q37.35-2.29 39.05-3.15 40.74-4 42.1-5.43 43.45-6.86 44.37-8.7 45.29-10.55 45.75-12.55L45.75-12.55 47.9-22.75 51.24-22.75 46.43 0 43.09 0 44.28-5.69Q40.55 0.56 34.35 0.56L34.35 0.56Q25.95 0.56 27.9-8.69L27.9-8.69ZM74.04-7.86L76.68-7.25Q75.53-3.66 72.66-1.55 69.79 0.56 66.13 0.56L66.13 0.56Q64.13 0.56 62.63-0.1 61.13-0.76 60.21-1.93 59.3-3.1 58.99-4.75 58.69-6.4 59.08-8.35L59.08-8.35 61.54-19.9 56.39-19.9 56.98-22.75 62.13-22.75 64.08-31.86 67.43-31.86 65.47-22.75 75.19-22.75 74.58-19.9 64.89-19.9 62.45-8.35Q62.18-7.1 62.34-6.01 62.5-4.91 63.04-4.08 63.59-3.25 64.51-2.77 65.42-2.29 66.74-2.29L66.74-2.29Q69.23-2.29 71.24-3.85 73.24-5.4 74.04-7.86L74.04-7.86ZM105.22-11.3L105.22-11.3Q104.63-8.64 103.33-6.47 102.02-4.3 100.13-2.75 98.23-1.2 95.83-0.32 93.43 0.56 90.72 0.56L90.72 0.56Q88.08 0.56 86.08-0.32 84.07-1.2 82.83-2.75 81.58-4.3 81.18-6.47 80.78-8.64 81.39-11.3L81.39-11.3Q81.93-13.89 83.26-16.13 84.59-18.36 86.48-19.93 88.37-21.51 90.78-22.4 93.18-23.29 95.82-23.29L95.82-23.29Q98.53-23.29 100.53-22.4 102.53-21.51 103.78-19.93 105.02-18.36 105.4-16.13 105.78-13.89 105.22-11.3ZM101.87-11.3L101.87-11.3Q102.29-13.26 102.06-14.9 101.82-16.55 100.94-17.8 100.07-19.04 98.63-19.75 97.18-20.46 95.18-20.46L95.18-20.46Q93.18-20.46 91.42-19.75 89.67-19.04 88.32-17.8 86.98-16.55 86.05-14.9 85.12-13.26 84.73-11.3L84.73-11.3Q84.27-9.35 84.5-7.7 84.73-6.05 85.58-4.86 86.42-3.66 87.87-2.98 89.32-2.29 91.33-2.29L91.33-2.29Q93.33-2.29 95.07-2.98 96.82-3.66 98.2-4.86 99.58-6.05 100.51-7.7 101.43-9.35 101.87-11.3ZM127.16-31.86L126.21-27.29 121.67-27.29 122.62-31.86 127.16-31.86ZM125.58-2.86L124.97 0 111.32 0 111.93-2.86 117.08-2.86 120.67-19.9 115.52-19.9 116.13-22.75 124.62-22.75 120.42-2.86 125.58-2.86ZM158.56-14.04L155.6 0 152.26 0 155.21-14.04Q155.87-17.09 154.89-18.77 153.92-20.46 150.96-20.46L150.96-20.46Q149.11-20.46 147.44-19.6 145.76-18.75 144.41-17.32 143.05-15.89 142.11-14.05 141.17-12.21 140.76-10.21L140.76-10.21 138.61 0 135.27 0 140.05-22.75 143.42-22.75 142.22-17.04Q145.96-23.29 152.16-23.29L152.16-23.29Q160.56-23.29 158.56-14.04L158.56-14.04ZM184.8-6.3L184.8-6.3Q184.41-4.3 183.13-2.98 181.85-1.66 180.1-0.88 178.35-0.1 176.33 0.23 174.3 0.56 172.45 0.56L172.45 0.56Q169.35 0.56 166.48-0.34 163.61-1.25 161.65-2.71L161.65-2.71 163.75-5.59Q165.95-4 168.2-3.15 170.44-2.29 173.06-2.29L173.06-2.29Q180.6-2.29 181.45-6.2L181.45-6.2Q181.65-7.15 181.15-7.75 180.65-8.35 179.67-8.73 178.7-9.11 177.4-9.33 176.11-9.55 174.64-9.74L174.64-9.74Q172.81-10.01 171.01-10.38 169.2-10.74 167.81-11.47 166.42-12.21 165.73-13.43 165.05-14.65 165.46-16.65L165.46-16.65Q165.85-18.36 166.98-19.6 168.1-20.85 169.72-21.68 171.35-22.51 173.4-22.9 175.45-23.29 177.55-23.29L177.55-23.29Q180.55-23.29 182.77-22.6 184.99-21.9 186.61-20.61L186.61-20.61 184.7-17.99Q183.07-19.36 181.16-19.91 179.26-20.46 176.91-20.46L176.91-20.46Q175.86-20.46 174.56-20.28 173.25-20.09 172.06-19.64 170.86-19.19 169.96-18.47 169.05-17.75 168.81-16.65L168.81-16.65Q168.61-15.7 169.11-15.12 169.61-14.55 170.58-14.17 171.54-13.79 172.85-13.57 174.15-13.35 175.6-13.16L175.6-13.16Q177.4-12.89 179.23-12.52 181.06-12.16 182.46-11.45 183.85-10.74 184.56-9.52 185.26-8.3 184.8-6.3ZM209.04-31.86L208.09-27.29 203.55-27.29 204.5-31.86 209.04-31.86ZM207.45-2.86L206.84 0 193.2 0 193.81-2.86 198.96-2.86 202.55-19.9 197.39-19.9 198-22.75 206.5-22.75 202.3-2.86 207.45-2.86ZM242.29-22.75L237.53-0.24Q237.04 2.1 235.84 3.93 234.65 5.76 232.91 7.03 231.18 8.3 229.06 8.97 226.93 9.64 224.54 9.64L224.54 9.64Q221.15 9.64 219.05 8.37 216.95 7.1 215.8 4.71L215.8 4.71 218.44 2.91Q219.15 4.49 220.89 5.57 222.64 6.64 225.2 6.64L225.2 6.64Q228.64 6.64 231.03 4.9 233.43 3.15 234.14-0.15L234.14-0.15 234.7-2.59Q231.08 0.05 227.3 0.05L227.3 0.05Q221.93 0.05 219.54-3 217.14-6.05 218.29-11.35L218.29-11.35Q218.83-13.94 220.08-16.13 221.34-18.31 223.16-19.91 224.98-21.51 227.31-22.4 229.64-23.29 232.28-23.29L232.28-23.29Q234.14-23.29 235.73-22.64 237.33-22 238.48-20.7L238.48-20.7 238.94-22.75 242.29-22.75ZM235.33-5.86L237.85-17.46Q236.7-19.04 235.12-19.75 233.55-20.46 231.65-20.46L231.65-20.46Q229.64-20.46 227.97-19.75 226.3-19.04 225.04-17.82 223.78-16.6 222.92-14.93 222.05-13.26 221.64-11.35L221.64-11.35Q220.78-7.45 222.31-5.13 223.83-2.81 227.89-2.81L227.89-2.81Q229.79-2.81 231.69-3.53 233.6-4.25 235.33-5.86L235.33-5.86ZM267.73-14.04L264.77 0 261.43 0 264.38-14.04Q265.04-17.09 264.06-18.77 263.09-20.46 260.13-20.46L260.13-20.46Q258.28-20.46 256.61-19.6 254.93-18.75 253.58-17.32 252.22-15.89 251.28-14.05 250.34-12.21 249.93-10.21L249.93-10.21 247.78 0 244.44 0 251.17-31.86 254.54-31.86 251.39-17.04Q255.13-23.29 261.33-23.29L261.33-23.29Q269.73-23.29 267.73-14.04L267.73-14.04ZM292.38-7.86L295.02-7.25Q293.87-3.66 291-1.55 288.13 0.56 284.47 0.56L284.47 0.56Q282.47 0.56 280.97-0.1 279.47-0.76 278.55-1.93 277.64-3.1 277.33-4.75 277.03-6.4 277.42-8.35L277.42-8.35 279.88-19.9 274.73-19.9 275.32-22.75 280.47-22.75 282.42-31.86 285.77-31.86 283.81-22.75 293.53-22.75 292.92-19.9 283.23-19.9 280.79-8.35Q280.52-7.1 280.68-6.01 280.83-4.91 281.38-4.08 281.93-3.25 282.85-2.77 283.76-2.29 285.08-2.29L285.08-2.29Q287.57-2.29 289.57-3.85 291.58-5.4 292.38-7.86L292.38-7.86ZM321.26-6.3L321.26-6.3Q320.87-4.3 319.59-2.98 318.31-1.66 316.56-0.88 314.82-0.1 312.79 0.23 310.76 0.56 308.91 0.56L308.91 0.56Q305.81 0.56 302.94-0.34 300.07-1.25 298.12-2.71L298.12-2.71 300.22-5.59Q302.41-4 304.66-3.15 306.91-2.29 309.52-2.29L309.52-2.29Q317.06-2.29 317.92-6.2L317.92-6.2Q318.11-7.15 317.61-7.75 317.11-8.35 316.13-8.73 315.16-9.11 313.86-9.33 312.57-9.55 311.11-9.74L311.11-9.74Q309.27-10.01 307.47-10.38 305.66-10.74 304.27-11.47 302.88-12.21 302.19-13.43 301.51-14.65 301.93-16.65L301.93-16.65Q302.32-18.36 303.44-19.6 304.56-20.85 306.19-21.68 307.81-22.51 309.86-22.9 311.91-23.29 314.01-23.29L314.01-23.29Q317.01-23.29 319.24-22.6 321.46-21.9 323.07-20.61L323.07-20.61 321.16-17.99Q319.53-19.36 317.62-19.91 315.72-20.46 313.38-20.46L313.38-20.46Q312.33-20.46 311.02-20.28 309.71-20.09 308.52-19.64 307.32-19.19 306.42-18.47 305.51-17.75 305.27-16.65L305.27-16.65Q305.08-15.7 305.58-15.12 306.08-14.55 307.04-14.17 308-13.79 309.31-13.57 310.62-13.35 312.06-13.16L312.06-13.16Q313.86-12.89 315.7-12.52 317.53-12.16 318.92-11.45 320.31-10.74 321.02-9.52 321.73-8.3 321.26-6.3Z" opacity="1" transform="matrix(1,0,0,1,0,0)" fill="#000000" class="wordmark-text-0" data-fill-palette-color="primary" id="text-0"></path></svg></g></svg></g></svg></g></svg></g><g><svg viewBox="0 0 218.72782995488473 69.92674694171265" height="69.92674694171265" width="218.72782995488473"><g><svg xmlns="http://www.w3.org/2000/svg" xmlns:xlink="http://www.w3.org/1999/xlink" version="1.1" x="0" y="0" viewBox="30.790492291506357 111.64066105657173 339.6815077084936 108.59533894342826" enable-background="new 0 0 395.601 302.8" xml:space="preserve" height="69.92674694171265" width="218.72782995488473" class="icon-icon-0" data-fill-palette-color="accent" id="icon-0"><path d="M325.411 155.52C344.294 146.079 362.968 160.17 366.315 162.948 366.411 162.974 366.501 162.993 366.598 163.019 370.858 164.544 349.094 135.579 326.766 147.43 328.795 141.892 325.536 137.814 322.959 137.244 320.385 136.676 312.436 139.297 307.811 144.698 308.014 140.844 304.604 137.157 297.325 135.152S241.263 124.697 192.876 123.187C192.871 123.426 192.875 123.663 192.863 123.903 192.052 139.324 174.536 150.942 153.735 149.849 134.217 148.824 118.746 136.972 117.583 122.773 80.837 125.763 46.73 134.107 36.874 143.277 23.182 156.016 33.985 190.007 55.494 193.743 58.058 194.188 63.296 194.823 70.631 195.572A40.6 40.6 0 0 1 69.836 185.161C71.01 162.806 90.084 145.636 112.439 146.811 134.794 147.984 151.965 167.058 150.79 189.413A40.5 40.5 0 0 1 148.194 201.718C219.373 203.06 264.707 204.361 304.265 200.555 303.663 197.734 303.417 194.805 303.417 191.796 303.417 178.857 306.528 164.961 325.411 155.52M110.485 152.151C91.685 152.151 76.443 167.392 76.443 186.194 76.443 204.995 91.685 220.236 110.485 220.236 129.287 220.236 144.528 204.995 144.528 186.194S129.287 152.151 110.485 152.151M110.485 206.236C99.416 206.236 90.442 197.262 90.442 186.194 90.442 175.124 99.416 166.151 110.485 166.151 121.555 166.151 130.528 175.124 130.528 186.194S121.555 206.236 110.485 206.236M340.054 157.81C323.257 157.81 309.64 171.427 309.64 188.226 309.64 205.023 323.257 218.64 340.054 218.64 356.853 218.64 370.472 205.023 370.472 188.226 370.472 171.427 356.853 157.81 340.054 157.81M340.056 205.739C330.382 205.739 322.54 197.897 322.54 188.225 322.54 178.551 330.382 170.709 340.056 170.709 349.728 170.709 357.572 178.551 357.572 188.225 357.571 197.897 349.728 205.739 340.056 205.739M177.073 139.868A3.2 3.2 0 0 0 181.132 137.875L188.642 115.871A3.2 3.2 0 0 0 186.649 111.812 3.2 3.2 0 0 0 182.591 113.805L175.08 135.81A3.196 3.196 0 0 0 177.073 139.868" fill="#000000" data-fill-palette-color="accent"></path></svg></g></svg></g></svg></g><defs></defs></svg><rect width="395.5199999999999" height="44.16758617169891" fill="none" stroke="none" visibility="hidden"></rect></g></svg></g></svg>